<svg id="visual" viewBox="0 0 900 600" width="900" height="600" xmlns="http://www.w3.org/2000/svg" xmlns:xlink="http://www.w3.org/1999/xlink" version="1.1"><rect x="0" y="0" width="900" height="600" fill="#0A2E36"></rect><path d="M0 441L21.5 436C43 431 86 421 128.8 409.7C171.7 398.3 214.3 385.7 257.2 393C300 400.3 343 427.7 385.8 424.8C428.7 422 471.3 389 514.2 388.3C557 387.7 600 419.3 642.8 437.7C685.7 456 728.3 461 771.2 445.2C814 429.3 857 392.7 878.5 374.3L900 356L900 601L878.5 601C857 601 814 601 771.2 601C728.3 601 685.7 601 642.8 601C600 601 557 601 514.2 601C471.3 601 428.7 601 385.8 601C343 601 300 601 257.2 601C214.3 601 171.7 601 128.8 601C86 601 43 601 21.5 601L0 601Z" fill="#27fb6b"></path><path d="M0 491L21.5 487.3C43 483.7 86 476.3 128.8 463C171.7 449.7 214.3 430.3 257.2 430.8C300 431.3 343 451.7 385.8 448.8C428.7 446 471.3 420 514.2 412C557 404 600 414 642.8 415.3C685.7 416.7 728.3 409.3 771.2 406.5C814 403.7 857 405.3 878.5 406.2L900 407L900 601L878.5 601C857 601 814 601 771.2 601C728.3 601 685.7 601 642.8 601C600 601 557 601 514.2 601C471.3 601 428.7 601 385.8 601C343 601 300 601 257.2 601C214.3 601 171.7 601 128.8 601C86 601 43 601 21.5 601L0 601Z" fill="#24dd59"></path><path d="M0 423L21.5 431.2C43 439.3 86 455.7 128.8 458.5C171.7 461.3 214.3 450.7 257.2 454.7C300 458.7 343 477.3 385.8 488.8C428.7 500.3 471.3 504.7 514.2 498.7C557 492.7 600 476.3 642.8 473.3C685.7 470.3 728.3 480.7 771.2 488C814 495.3 857 499.7 878.5 501.8L900 504L900 601L878.5 601C857 601 814 601 771.2 601C728.3 601 685.7 601 642.8 601C600 601 557 601 514.2 601C471.3 601 428.7 601 385.8 601C343 601 300 601 257.2 601C214.3 601 171.7 601 128.8 601C86 601 43 601 21.5 601L0 601Z" fill="#1ebf47"></path><path d="M0 464L21.5 475C43 486 86 508 128.8 518C171.7 528 214.3 526 257.2 513.7C300 501.3 343 478.7 385.8 474.8C428.7 471 471.3 486 514.2 495.8C557 505.7 600 510.3 642.8 508.2C685.7 506 728.3 497 771.2 499.5C814 502 857 516 878.5 523L900 530L900 601L878.5 601C857 601 814 601 771.2 601C728.3 601 685.7 601 642.8 601C600 601 557 601 514.2 601C471.3 601 428.7 601 385.8 601C343 601 300 601 257.2 601C214.3 601 171.7 601 128.8 601C86 601 43 601 21.5 601L0 601Z" fill="#17a337"></path><path d="M0 513L21.5 514C43 515 86 517 128.8 518.5C171.7 520 214.3 521 257.2 520.3C300 519.7 343 517.3 385.8 517C428.7 516.7 471.3 518.3 514.2 516.3C557 514.3 600 508.7 642.8 505.8C685.7 503 728.3 503 771.2 510.7C814 518.3 857 533.7 878.5 541.3L900 549L900 601L878.5 601C857 601 814 601 771.2 601C728.3 601 685.7 601 642.8 601C600 601 557 601 514.2 601C471.3 601 428.7 601 385.8 601C343 601 300 601 257.2 601C214.3 601 171.7 601 128.8 601C86 601 43 601 21.5 601L0 601Z" fill="#0e8728"></path><path d="M0 562L21.5 561.3C43 560.7 86 559.3 128.8 557C171.7 554.7 214.3 551.3 257.2 547C300 542.7 343 537.3 385.8 540.5C428.7 543.7 471.3 555.3 514.2 558.8C557 562.3 600 557.7 642.8 552.3C685.7 547 728.3 541 771.2 543.7C814 546.3 857 557.7 878.5 563.3L900 569L900 601L878.5 601C857 601 814 601 771.2 601C728.3 601 685.7 601 642.8 601C600 601 557 601 514.2 601C471.3 601 428.7 601 385.8 601C343 601 300 601 257.2 601C214.3 601 171.7 601 128.8 601C86 601 43 601 21.5 601L0 601Z" fill="#036d19"></path></svg>